<svg width="47" height="50" viewBox="0 0 47 50" fill="none" xmlns="http://www.w3.org/2000/svg">
<path d="M0.423828 21.0569C0.423828 9.63621 9.68211 0.37793 21.1028 0.37793V0.37793V28.9434C21.1028 40.364 11.8445 49.6223 0.423828 49.6223V49.6223V21.0569Z" fill="#2679E6"/>
<path d="M24.1025 11.6147C24.1025 5.40881 29.1334 0.37793 35.3393 0.37793C41.5452 0.37793 46.5761 5.4088 46.5761 11.6147V12.2635C46.5761 18.4694 41.5452 23.5002 35.3393 23.5002C29.1334 23.5002 24.1025 18.4694 24.1025 12.2635V11.6147Z" fill="#4CBFFF"/>
<path d="M24.1025 37.7368C24.1025 31.5309 29.1334 26.5 35.3393 26.5V26.5C41.5452 26.5 46.5761 31.5309 46.5761 37.7368V38.3855C46.5761 44.5914 41.5452 49.6223 35.3393 49.6223V49.6223C29.1334 49.6223 24.1025 44.5914 24.1025 38.3855V37.7368Z" fill="#2B86FF"/>
</svg>
